<svg xmlns="http://www.w3.org/2000/svg" viewBox="0 0 145 141" width="145" height="141">
  <defs>
    <linearGradient id="innerFlameGradient" x1="0" y1="0" x2="0" y2="1">
      <stop offset="0%" stop-color="#ffb400"/>
      <stop offset="55%" stop-color="#ffa000"/>
      <stop offset="100%" stop-color="#ff6a00"/>
    </linearGradient>
  </defs>
  <path d="M 22 17 L 14 25 L 10 32 L 7 43 L 7 52 L 9 62 L 14 75 L 24 91 L 31 100 L 50 118 L 45 111 L 41 101 L 41 95 L 40 94 L 41 87 L 44 79 L 50 72 L 51 73 L 50 76 L 51 82 L 53 86 L 56 88 L 55 84 L 57 76 L 65 65 L 68 57 L 68 51 L 65 44 L 67 43 L 76 51 L 80 57 L 82 63 L 82 73 L 81 74 L 82 83 L 84 85 L 88 82 L 90 78 L 90 72 L 91 71 L 99 82 L 101 89 L 101 98 L 98 108 L 91 118 L 93 118 L 114 97 L 124 83 L 132 67 L 135 56 L 135 40 L 132 31 L 127 23 L 119 16 L 113 13 L 103 11 L 94 12 L 81 19 L 71 32 L 67 25 L 59 17 L 48 12 L 43 12 L 42 11 L 33 12 Z M 74 58 L 73 58 L 71 67 L 64 76 L 61 83 L 61 92 L 66 102 L 66 107 L 65 108 L 62 102 L 50 92 L 48 86 L 45 93 L 45 102 L 48 110 L 53 117 L 71 133 L 78 128 L 91 115 L 97 102 L 97 93 L 94 85 L 93 85 L 91 92 L 84 99 L 82 98 L 80 90 L 77 87 L 76 84 L 78 67 Z" fill="url(#innerFlameGradient)" fill-rule="evenodd"/>
</svg>
